<?xml version="1.0" standalone="no"?><!DOCTYPE svg PUBLIC "-//W3C//DTD SVG 1.1//EN" "http://www.w3.org/Graphics/SVG/1.1/DTD/svg11.dtd"><svg t="1732331256697" class="icon" viewBox="0 0 1024 1024" version="1.1" xmlns="http://www.w3.org/2000/svg" p-id="12512" xmlns:xlink="http://www.w3.org/1999/xlink" width="32" height="32"><path d="M825.6 428.373333A319.573333 319.573333 0 0 0 512 170.666667C388.693333 170.666667 281.6 240.64 228.266667 343.04A255.744 255.744 0 0 0 0 597.333333c0 141.226667 114.773333 256 256 256h554.666667c117.76 0 213.333333-95.573333 213.333333-213.333333 0-112.64-87.466667-203.946667-198.4-211.626667zM725.333333 554.666667l-198.4 198.4c-8.533333 8.533333-21.76 8.533333-30.293333 0L298.666667 554.666667h128V384h170.666666v170.666667h128z" p-id="12513" fill="#ffffff"></path></svg>