<?xml version="1.0" standalone="no"?><!DOCTYPE svg PUBLIC "-//W3C//DTD SVG 1.1//EN" "http://www.w3.org/Graphics/SVG/1.1/DTD/svg11.dtd"><svg t="1732546120676" class="icon" viewBox="0 0 1024 1024" version="1.1" xmlns="http://www.w3.org/2000/svg" p-id="12176" xmlns:xlink="http://www.w3.org/1999/xlink" width="32" height="32"><path d="M512 682.666667c-23.466667 0-42.666667 19.2-42.666667 42.666666s19.2 42.666667 42.666667 42.666667 42.666667-19.2 42.666667-42.666667-19.2-42.666667-42.666667-42.666666z m-213.333333-213.333334c-23.466667 0-42.666667 19.2-42.666667 42.666667s19.2 42.666667 42.666667 42.666667 42.666667-19.2 42.666666-42.666667-19.2-42.666667-42.666666-42.666667z m426.666666 0c-23.466667 0-42.666667 19.2-42.666666 42.666667s19.2 42.666667 42.666666 42.666667 42.666667-19.2 42.666667-42.666667-19.2-42.666667-42.666667-42.666667z m-213.333333-341.333333c-23.466667 0-42.666667 19.2-42.666667 42.666667v85.333333c0 23.466667 19.2 42.666667 42.666667 42.666667s42.666667-19.2 42.666667-42.666667v-39.253333c141.226667 20.48 250.453333 138.666667 256 284.16 5.973333 164.266667-129.28 307.2-293.546667 309.76A298.496 298.496 0 0 1 213.333333 512c0-71.68 25.173333-137.386667 67.413334-188.586667l200.96 201.386667a42.496 42.496 0 1 0 60.16-60.16L309.76 232.96c-16.213333-16.213333-42.666667-16.64-59.733333-0.853333A379.904 379.904 0 0 0 128 512c0 215.04 176.64 389.12 392.96 384 200.533333-4.693333 368.213333-171.093333 374.613333-371.626667C902.826667 306.773333 728.32 128 512 128z" p-id="12177" fill="#ffffff"></path></svg>