<?xml version="1.0" standalone="no"?><!DOCTYPE svg PUBLIC "-//W3C//DTD SVG 1.1//EN" "http://www.w3.org/Graphics/SVG/1.1/DTD/svg11.dtd"><svg t="1732546930435" class="icon" viewBox="0 0 1024 1024" version="1.1" xmlns="http://www.w3.org/2000/svg" p-id="12366" xmlns:xlink="http://www.w3.org/1999/xlink" width="32" height="32"><path d="M780.8 243.626667a41.984 41.984 0 0 0-29.866667-12.373334c-11.093333 0-22.186667 4.693333-29.866666 12.373334L512 451.84 303.36 243.2a41.984 41.984 0 0 0-29.866667-12.373333c-11.093333 0-22.186667 4.693333-30.293333 12.373333a42.496 42.496 0 0 0 0 60.16L451.84 512 243.2 720.64a42.496 42.496 0 1 0 60.16 60.16L512 572.16l208.64 208.64a42.496 42.496 0 1 0 60.16-60.16L572.16 512l208.64-208.64c16.213333-16.213333 16.213333-43.52 0-59.733333z" p-id="12367" fill="#ffffff"></path></svg>