<?xml version="1.0" standalone="no"?><!DOCTYPE svg PUBLIC "-//W3C//DTD SVG 1.1//EN" "http://www.w3.org/Graphics/SVG/1.1/DTD/svg11.dtd"><svg t="1732335436905" class="icon" viewBox="0 0 1024 1024" version="1.1" xmlns="http://www.w3.org/2000/svg" p-id="12702" xmlns:xlink="http://www.w3.org/1999/xlink" width="32" height="32"><path d="M752.64 270.933333a339.2 339.2 0 0 0-276.48-98.56c-156.586667 15.786667-285.44 142.933333-302.933333 299.52-23.466667 206.933333 136.533333 381.44 338.346666 381.44a340.48 340.48 0 0 0 307.626667-194.56c13.653333-28.586667-6.826667-61.44-38.4-61.44-15.786667 0-30.72 8.533333-37.546667 22.613334a255.744 255.744 0 0 1-290.133333 141.226666c-94.72-20.906667-171.093333-98.133333-191.146667-192.853333A256.085333 256.085333 0 0 1 511.573333 256c70.826667 0 133.973333 29.44 180.053334 75.946667L627.2 396.373333c-26.88 26.88-8.106667 72.96 29.866667 72.96h153.173333c23.466667 0 42.666667-19.2 42.666667-42.666666V273.493333c0-37.973333-46.08-57.173333-72.96-30.293333l-27.306667 27.733333z" p-id="12703" fill="#ffffff"></path></svg>